<svg width="30.125977" height="30.000000" viewBox="0 0 30.126 30" fill="none" xmlns="http://www.w3.org/2000/svg" xmlns:xlink="http://www.w3.org/1999/xlink">
	<desc>
			Created with Pixso.
	</desc>
	<defs/>
	<mask id="mask_67_202" fill="white">
		<path d="M0 15C0 6.71573 6.7439 0 15.063 0C23.3821 0 30.126 6.71573 30.126 15C30.126 23.2843 23.3821 30 15.063 30C8.33008 30 2.62891 25.601 0.699707 19.5317C1.44214 19.9488 4.18359 21.0845 4.33301 21.1317L6.34741 21.796C7.25317 24.4723 10.1731 25.9068 12.8608 25.0018C14.6138 24.4146 15.9116 22.9368 16.2651 21.1317L22.0566 17.0161C25.4658 16.6937 27.9646 13.69 27.645 10.3013C27.3447 7.16766 24.7153 4.76086 21.5435 4.72717C18.1487 4.73199 15.3884 7.44684 15.345 10.8163L11.8679 15.0378C10.7058 14.8693 9.52417 15.1196 8.53638 15.7406L4.71069 14.0173C4.55103 13.9451 1.55933 12.8573 1.41406 12.9488C1.26392 13.045 0.796631 13.08 0.796631 13.2581L1.19702 19.5306C0.940674 19.4557 0.764648 19.4112 0.655762 19.3917C0.229492 18.0027 0 16.528 0 15ZM21.5437 13.9691C23.2554 13.9691 24.6431 12.5898 24.6431 10.8884C24.6431 9.18701 23.2554 7.80777 21.5437 7.80777C19.832 7.80777 18.4443 9.18701 18.4443 10.8884C18.4443 12.5898 19.832 13.9691 21.5437 13.9691ZM21.5442 12.9438C22.686 12.9438 23.6121 12.0236 23.6121 10.8885C23.6121 9.7533 22.686 8.83307 21.5442 8.83307C20.4021 8.83307 19.4763 9.7533 19.4763 10.8885C19.4763 12.0236 20.4021 12.9438 21.5442 12.9438ZM9.86865 22.9031C10.2852 23.1053 10.7451 23.2112 11.21 23.2112C11.5635 23.2112 11.9075 23.1534 12.2463 23.0427C13.0259 22.7732 13.6604 22.21 14.0186 21.4735C14.7644 19.938 14.1155 18.0992 12.5757 17.3579C12.3142 17.2328 12.009 17.3387 11.8831 17.5938C11.7573 17.8537 11.8638 18.157 12.1204 18.2821C12.1543 18.2966 12.1882 18.311 12.2222 18.3303C13.239 18.8501 13.6313 20.0872 13.1084 21.0981C12.5852 22.1089 11.3359 22.4988 10.324 21.9789C10.0625 21.8538 9.75732 21.9597 9.63135 22.2148C9.50562 22.4747 9.61206 22.778 9.86865 22.9031Z" clip-rule="evenodd" fill="" fill-opacity="1.000000" fill-rule="evenodd"/>
	</mask>
	<path d="M0 15C0 6.71573 6.7439 0 15.063 0C23.3821 0 30.126 6.71573 30.126 15C30.126 23.2843 23.3821 30 15.063 30C8.33008 30 2.62891 25.601 0.699707 19.5317C1.44214 19.9488 4.18359 21.0845 4.33301 21.1317L6.34741 21.796C7.25317 24.4723 10.1731 25.9068 12.8608 25.0018C14.6138 24.4146 15.9116 22.9368 16.2651 21.1317L22.0566 17.0161C25.4658 16.6937 27.9646 13.69 27.645 10.3013C27.3447 7.16766 24.7153 4.76086 21.5435 4.72717C18.1487 4.73199 15.3884 7.44684 15.345 10.8163L11.8679 15.0378C10.7058 14.8693 9.52417 15.1196 8.53638 15.7406L4.71069 14.0173C4.55103 13.9451 1.55933 12.8573 1.41406 12.9488C1.26392 13.045 0.796631 13.08 0.796631 13.2581L1.19702 19.5306C0.940674 19.4557 0.764648 19.4112 0.655762 19.3917C0.229492 18.0027 0 16.528 0 15ZM21.5437 13.9691C23.2554 13.9691 24.6431 12.5898 24.6431 10.8884C24.6431 9.18701 23.2554 7.80777 21.5437 7.80777C19.832 7.80777 18.4443 9.18701 18.4443 10.8884C18.4443 12.5898 19.832 13.9691 21.5437 13.9691ZM21.5442 12.9438C22.686 12.9438 23.6121 12.0236 23.6121 10.8885C23.6121 9.7533 22.686 8.83307 21.5442 8.83307C20.4021 8.83307 19.4763 9.7533 19.4763 10.8885C19.4763 12.0236 20.4021 12.9438 21.5442 12.9438ZM9.86865 22.9031C10.2852 23.1053 10.7451 23.2112 11.21 23.2112C11.5635 23.2112 11.9075 23.1534 12.2463 23.0427C13.0259 22.7732 13.6604 22.21 14.0186 21.4735C14.7644 19.938 14.1155 18.0992 12.5757 17.3579C12.3142 17.2328 12.009 17.3387 11.8831 17.5938C11.7573 17.8537 11.8638 18.157 12.1204 18.2821C12.1543 18.2966 12.1882 18.311 12.2222 18.3303C13.239 18.8501 13.6313 20.0872 13.1084 21.0981C12.5852 22.1089 11.3359 22.4988 10.324 21.9789C10.0625 21.8538 9.75732 21.9597 9.63135 22.2148C9.50562 22.4747 9.61206 22.778 9.86865 22.9031Z" clip-rule="evenodd" fill="#FFB548" fill-opacity="1.000000" fill-rule="evenodd" mask="url(#mask_67_202)"/>
	<path d="" fill="#979797" fill-opacity="0.000000" fill-rule="nonzero"/>
</svg>
