<svg width="30.041748" height="30.003876" viewBox="0 0 30.0417 30.0039" fill="none" xmlns="http://www.w3.org/2000/svg" xmlns:xlink="http://www.w3.org/1999/xlink">
	<desc>
			Created with Pixso.
	</desc>
	<defs/>
	<path d="M9.92 2.65C11.51 3.27 13.04 4.09 14.48 5.09C14.65 5.2 14.83 5.26 15.02 5.26C15.21 5.26 15.4 5.2 15.56 5.09C17 4.09 18.54 3.26 20.12 2.64C20.48 2.5 20.72 2.15 20.71 1.76C20.71 1.38 20.47 1.03 20.11 0.9C16.94 -0.31 13.1 -0.31 9.94 0.9C9.58 1.03 9.34 1.38 9.34 1.76C9.34 2.14 9.56 2.51 9.92 2.65Z" fill="#FFB548" fill-opacity="1.000000" fill-rule="nonzero"/>
	<path d="M23.53 2.65C23.23 2.45 22.85 2.43 22.53 2.61C20.77 3.62 19.08 4.78 17.47 6.05C17.26 6.22 17.13 6.47 17.12 6.74C17.11 7.01 17.22 7.27 17.41 7.46C20.73 10.62 25.33 20.31 26.39 24.76C24.1 20.89 18.99 11.79 15.66 8.68C15.3 8.34 14.73 8.34 14.38 8.68C11.03 11.79 5.94 20.9 3.66 24.77C4.71 20.32 9.3 10.62 12.62 7.46C12.82 7.27 12.93 7.01 12.92 6.74C12.9 6.47 12.77 6.22 12.56 6.05C10.96 4.78 9.26 3.62 7.51 2.61C7.2 2.43 6.81 2.45 6.51 2.65C2.43 5.46 0 10.07 0 15C0 18.59 1.29 22.06 3.66 24.77C6.48 28.09 10.62 30 15.02 30C19.41 30 23.55 28.09 26.39 24.77C28.74 22.07 30.04 18.6 30.04 15C30.04 10.07 27.6 5.46 23.53 2.65Z" fill="#FFB548" fill-opacity="1.000000" fill-rule="nonzero"/>
</svg>
